<svg width="211" height="57" viewBox="0 0 211 57" fill="none" xmlns="http://www.w3.org/2000/svg">
<path fill-rule="evenodd" clip-rule="evenodd" d="M7 19.5C7 19.7 7 19.9 7 20.1C7.3 26.7 12.8 31.8 19.4 31.8C26.2 31.8 31.8 26.3 31.8 19.4C31.8 12.6 26.2 7 19.4 7C13.6 7 8.8 10.9 7.4 16.2H0.1C1.5 7.1 9.7 0.0999985 19.4 0.0999985C30.1 0.0999985 38.8 8.8 38.8 19.5C38.8 30.2 30.1 39 19.4 39C8.9 39 0.4 30.6 0 20.2C0 20 0 19.8 0 19.5" fill="#E52D12"/>
<path fill-rule="evenodd" clip-rule="evenodd" d="M43.5 20.1V37.9H50.4V20.3V19.8C50.1 13.2 56 8 62.6 8V1.1C52 1.1 43.5 9.6 43.5 20.1ZM197.7 20.1L197.6 0.300003H190.7V20.1C190.7 30.7 199.3 39.2 209.9 39.2V32.2C203.3 32.2 197.7 26.8 197.7 20.1Z" fill="#1D1D1B"/>
<path fill-rule="evenodd" clip-rule="evenodd" d="M117.4 0.199997V0.299997V37.7H110.3V0.199997" fill="#1D1D1B"/>
<path fill-rule="evenodd" clip-rule="evenodd" d="M128.2 17L146.5 0.199997H136.2L120.6 14.5V23.4H123.6H124.3C131.3 23.3 137 30.1 137 37.9H143.8C143.8 27.9 136.9 19.8 128.2 17Z" fill="#1D1D1B"/>
<path fill-rule="evenodd" clip-rule="evenodd" d="M154.2 14.4C154.2 14.4 152.8 17 153.4 21.1C153.9 24.7 154.6 21.8 154.6 21.8L154.3 16.9L154.2 14.4Z" fill="white"/>
<path fill-rule="evenodd" clip-rule="evenodd" d="M174.2 29.4C172.2 30.8 169.7 31.6 167.3 31.6C160.6 31.6 155.1 26.1 155.1 19.4C155.1 12.7 160.6 7.2 167.3 7.2C170.3 7.2 173.1 8.3 175.2 10.1L158.9 22L162.1 27L166.9 23.4L166.2 23.9L178.3 15.3L177.9 15.5L184.6 11.1C181.5 4.7 175 0.2 167.3 0.2C156.8 0.2 148.2 8.8 148.2 19.3C148.2 29.9 156.8 38.4 167.3 38.4C171.2 38.4 174.9 37.3 178.1 35.1C181.2 33 183.7 30 185 26.5C185 26.5 185.3 25.6 185.4 25.2H178C177.2 26.9 175.9 28.4 174.2 29.4ZM102.8 19.5C102.8 8.7 94.1 0 83.3 0C72.6 0 63.9 8.7 63.9 19.5C63.9 30.2 72.6 38.9 83.3 38.9C86.6 38.9 89.7 38.2 92.5 36.7V31.3V28.3L89.9 30H89.8C87.9 31.1 85.7 31.8 83.3 31.8C76.5 31.8 70.9 26.3 70.9 19.4C70.9 12.5 76.5 7 83.3 7C90.1 7 95.8 12.6 95.8 19.4V26.6V37.8H102.8V28.2V19.5Z" fill="#1D1D1B"/>
<path fill-rule="evenodd" clip-rule="evenodd" d="M121.8 51.9C121.8 52 121.8 52 121.8 51.9C121.8 52.9 122.6 53.7 123.6 53.7C124.6 53.7 125.4 52.9 125.4 51.9C125.4 50.9 124.6 50.1 123.6 50.1C122.8 50.1 122.1 50.7 121.9 51.4H120.9C121.1 50.1 122.3 49.1 123.7 49.1C125.2 49.1 126.5 50.3 126.5 51.9C126.5 53.4 125.3 54.7 123.7 54.7C122.2 54.7 121 53.5 120.9 52V51.9H121.8ZM205.9 51.9C205.9 52 205.9 52 205.9 51.9C206 52.9 206.7 53.7 207.7 53.7C208.7 53.7 209.5 52.9 209.5 51.9C209.5 50.9 208.7 50.1 207.7 50.1C206.9 50.1 206.2 50.7 206 51.4H205C205.2 50.1 206.4 49.1 207.8 49.1C209.3 49.1 210.6 50.3 210.6 51.9C210.6 53.4 209.4 54.7 207.8 54.7C206.3 54.7 205.1 53.5 205 52V51.9" fill="#E52D12"/>
<path d="M134.444 52.682C134.444 52.3998 134.337 52.1815 134.123 52.0272C133.912 51.8692 133.541 51.7337 133.011 51.6208C132.484 51.508 132.064 51.3725 131.752 51.2144C131.443 51.0564 131.214 50.8682 131.063 50.65C130.916 50.4317 130.843 50.1721 130.843 49.871C130.843 49.3706 131.054 48.9472 131.475 48.601C131.9 48.2548 132.442 48.0817 133.101 48.0817C133.793 48.0817 134.354 48.2605 134.783 48.618C135.216 48.9754 135.432 49.4326 135.432 49.9896H134.382C134.382 49.7036 134.26 49.4571 134.015 49.2501C133.774 49.0432 133.47 48.9397 133.101 48.9397C132.721 48.9397 132.424 49.0225 132.209 49.188C131.995 49.3536 131.887 49.57 131.887 49.8372C131.887 50.0893 131.987 50.2793 132.186 50.4073C132.386 50.5352 132.745 50.6575 133.265 50.7742C133.788 50.8908 134.211 51.03 134.535 51.1919C134.858 51.3537 135.097 51.5493 135.251 51.7789C135.41 52.0047 135.489 52.2813 135.489 52.6086C135.489 53.1543 135.27 53.5927 134.834 53.9238C134.397 54.2512 133.831 54.4149 133.135 54.4149C132.646 54.4149 132.213 54.3283 131.837 54.1552C131.46 53.9821 131.165 53.7413 130.95 53.4327C130.74 53.1204 130.634 52.7836 130.634 52.4224H131.678C131.697 52.7723 131.837 53.0508 132.096 53.2578C132.36 53.461 132.706 53.5626 133.135 53.5626C133.53 53.5626 133.846 53.4835 134.083 53.3255C134.324 53.1637 134.444 52.9492 134.444 52.682Z" fill="black"/>
<path d="M137.831 48.1946L137.859 48.872C138.307 48.3451 138.911 48.0817 139.671 48.0817C140.525 48.0817 141.107 48.4091 141.415 49.0639C141.618 48.7704 141.882 48.5333 142.206 48.3527C142.533 48.172 142.919 48.0817 143.363 48.0817C144.702 48.0817 145.383 48.791 145.406 50.2097V54.302H144.362V50.2718C144.362 49.8353 144.262 49.5098 144.063 49.2953C143.863 49.077 143.528 48.9679 143.058 48.9679C142.67 48.9679 142.349 49.0846 142.093 49.3179C141.837 49.5474 141.688 49.8579 141.647 50.2492V54.302H140.597V50.3C140.597 49.4119 140.162 48.9679 139.293 48.9679C138.608 48.9679 138.14 49.2595 137.887 49.8428V54.302H136.843V48.1946H137.831Z" fill="black"/>
<path d="M146.71 51.1919C146.71 50.5935 146.827 50.0554 147.06 49.5775C147.297 49.0996 147.624 48.7308 148.042 48.4712C148.463 48.2115 148.943 48.0817 149.481 48.0817C150.313 48.0817 150.985 48.3696 151.496 48.9453C152.012 49.5211 152.27 50.2869 152.27 51.2427V51.316C152.27 51.9106 152.155 52.4449 151.925 52.9191C151.7 53.3895 151.374 53.7564 150.949 54.0198C150.527 54.2832 150.042 54.4149 149.493 54.4149C148.665 54.4149 147.993 54.127 147.478 53.5513C146.966 52.9755 146.71 52.2135 146.71 51.2652V51.1919ZM147.76 51.316C147.76 51.9934 147.916 52.5371 148.228 52.9473C148.544 53.3575 148.966 53.5626 149.493 53.5626C150.023 53.5626 150.445 53.3556 150.757 52.9417C151.069 52.524 151.225 51.9407 151.225 51.1919C151.225 50.522 151.066 49.9802 150.746 49.5662C150.43 49.1485 150.008 48.9397 149.481 48.9397C148.966 48.9397 148.55 49.1448 148.234 49.5549C147.918 49.9651 147.76 50.5521 147.76 51.316Z" fill="black"/>
<path d="M153.303 51.1919C153.303 50.5935 153.419 50.0554 153.653 49.5775C153.89 49.0996 154.217 48.7308 154.635 48.4712C155.056 48.2115 155.536 48.0817 156.074 48.0817C156.906 48.0817 157.577 48.3696 158.089 48.9453C158.605 49.5211 158.863 50.2869 158.863 51.2427V51.316C158.863 51.9106 158.748 52.4449 158.518 52.9191C158.292 53.3895 157.967 53.7564 157.542 54.0198C157.12 54.2832 156.635 54.4149 156.085 54.4149C155.258 54.4149 154.586 54.127 154.07 53.5513C153.559 52.9755 153.303 52.2135 153.303 51.2652V51.1919ZM154.353 51.316C154.353 51.9934 154.509 52.5371 154.821 52.9473C155.137 53.3575 155.559 53.5626 156.085 53.5626C156.616 53.5626 157.037 53.3556 157.35 52.9417C157.662 52.524 157.818 51.9407 157.818 51.1919C157.818 50.522 157.658 49.9802 157.339 49.5662C157.022 49.1485 156.601 48.9397 156.074 48.9397C155.559 48.9397 155.143 49.1448 154.827 49.5549C154.511 49.9651 154.353 50.5521 154.353 51.316Z" fill="black"/>
<path d="M161.589 46.7157V48.1946H162.729V49.0018H161.589V52.7893C161.589 53.0339 161.64 53.2182 161.741 53.3424C161.843 53.4628 162.016 53.523 162.261 53.523C162.381 53.523 162.547 53.5005 162.757 53.4553V54.302C162.483 54.3773 162.215 54.4149 161.956 54.4149C161.489 54.4149 161.137 54.2738 160.9 53.9915C160.663 53.7093 160.545 53.3086 160.545 52.7893V49.0018H159.433V48.1946H160.545V46.7157H161.589Z" fill="black"/>
<path d="M164.998 48.934C165.461 48.3658 166.063 48.0817 166.804 48.0817C168.095 48.0817 168.746 48.8099 168.757 50.2662V54.302H167.713V50.2605C167.709 49.8202 167.608 49.4947 167.408 49.284C167.213 49.0733 166.906 48.9679 166.488 48.9679C166.15 48.9679 165.852 49.0582 165.596 49.2388C165.341 49.4195 165.141 49.6565 164.998 49.9501V54.302H163.954V45.632H164.998V48.934Z" fill="black"/>
<path d="M177.004 46.5182C176.537 46.4429 176.161 46.4053 175.875 46.4053C175.123 46.4053 174.746 46.8004 174.746 47.5906V48.1946H176.05V49.0018H174.746V54.302H173.702V49.0018H172.737V48.1946H173.702V47.5286C173.706 46.8776 173.888 46.379 174.25 46.0328C174.611 45.6866 175.124 45.5135 175.79 45.5135C176.171 45.5135 176.923 45.6282 178.048 45.8578V54.302H177.004V46.5182Z" fill="black"/>
<path d="M179.482 51.1919C179.482 50.5935 179.599 50.0554 179.832 49.5775C180.069 49.0996 180.396 48.7308 180.814 48.4712C181.236 48.2115 181.715 48.0817 182.253 48.0817C183.085 48.0817 183.757 48.3696 184.269 48.9453C184.784 49.5211 185.042 50.2869 185.042 51.2427V51.316C185.042 51.9106 184.927 52.4449 184.698 52.9191C184.472 53.3895 184.146 53.7564 183.721 54.0198C183.3 54.2832 182.814 54.4149 182.265 54.4149C181.437 54.4149 180.765 54.127 180.25 53.5513C179.738 52.9755 179.482 52.2135 179.482 51.2652V51.1919ZM180.532 51.316C180.532 51.9934 180.688 52.5371 181 52.9473C181.316 53.3575 181.738 53.5626 182.265 53.5626C182.795 53.5626 183.217 53.3556 183.529 52.9417C183.841 52.524 183.998 51.9407 183.998 51.1919C183.998 50.522 183.838 49.9802 183.518 49.5662C183.202 49.1485 182.78 48.9397 182.253 48.9397C181.738 48.9397 181.322 49.1448 181.006 49.5549C180.69 49.9651 180.532 50.5521 180.532 51.316Z" fill="black"/>
<path d="M191.759 52.8626L192.933 48.1946H193.977L192.199 54.302H191.352L189.868 49.6735L188.423 54.302H187.576L185.804 48.1946H186.842L188.045 52.7667L189.467 48.1946H190.308L191.759 52.8626Z" fill="black"/>
<path d="M198.6 52.682C198.6 52.3998 198.493 52.1815 198.278 52.0272C198.068 51.8692 197.697 51.7337 197.166 51.6208C196.639 51.508 196.22 51.3725 195.908 51.2144C195.599 51.0564 195.369 50.8682 195.219 50.65C195.072 50.4317 194.999 50.1721 194.999 49.871C194.999 49.3706 195.21 48.9472 195.631 48.601C196.056 48.2548 196.598 48.0817 197.257 48.0817C197.949 48.0817 198.51 48.2605 198.939 48.618C199.371 48.9754 199.588 49.4326 199.588 49.9896H198.538C198.538 49.7036 198.416 49.4571 198.171 49.2501C197.93 49.0432 197.625 48.9397 197.257 48.9397C196.877 48.9397 196.579 49.0225 196.365 49.188C196.15 49.3536 196.043 49.57 196.043 49.8372C196.043 50.0893 196.143 50.2793 196.342 50.4073C196.542 50.5352 196.901 50.6575 197.42 50.7742C197.943 50.8908 198.367 51.03 198.69 51.1919C199.014 51.3537 199.253 51.5493 199.407 51.7789C199.565 52.0047 199.644 52.2813 199.644 52.6086C199.644 53.1543 199.426 53.5927 198.99 53.9238C198.553 54.2512 197.987 54.4149 197.291 54.4149C196.801 54.4149 196.369 54.3283 195.992 54.1552C195.616 53.9821 195.321 53.7413 195.106 53.4327C194.895 53.1204 194.79 52.7836 194.79 52.4224H195.834C195.853 52.7723 195.992 53.0508 196.252 53.2578C196.515 53.461 196.862 53.5626 197.291 53.5626C197.686 53.5626 198.002 53.4835 198.239 53.3255C198.48 53.1637 198.6 52.9492 198.6 52.682Z" fill="black"/>
<path d="M47.1513 52.682C47.1513 52.3998 47.044 52.1815 46.8296 52.0273C46.6188 51.8692 46.2482 51.7337 45.7176 51.6208C45.1908 51.508 44.7712 51.3725 44.4588 51.2144C44.1503 51.0564 43.9207 50.8682 43.7702 50.65C43.6235 50.4317 43.5501 50.1721 43.5501 49.871C43.5501 49.3706 43.7608 48.9472 44.1823 48.601C44.6075 48.2548 45.1494 48.0817 45.8079 48.0817C46.5003 48.0817 47.061 48.2605 47.49 48.618C47.9227 48.9754 48.1391 49.4327 48.1391 49.9896H47.0892C47.0892 49.7036 46.9669 49.4571 46.7223 49.2501C46.4815 49.0432 46.1767 48.9397 45.8079 48.9397C45.4278 48.9397 45.1305 49.0225 44.9161 49.1881C44.7016 49.3536 44.5943 49.57 44.5943 49.8372C44.5943 50.0893 44.694 50.2793 44.8935 50.4073C45.0929 50.5352 45.4523 50.6575 45.9716 50.7742C46.4946 50.8908 46.918 51.0301 47.2416 51.1919C47.5652 51.3537 47.8042 51.5494 47.9585 51.7789C48.1165 52.0047 48.1955 52.2813 48.1955 52.6086C48.1955 53.1543 47.9773 53.5927 47.5408 53.9238C47.1043 54.2512 46.5379 54.4149 45.8418 54.4149C45.3526 54.4149 44.9198 54.3283 44.5435 54.1552C44.1672 53.9821 43.8718 53.7413 43.6573 53.4327C43.4466 53.1204 43.3412 52.7836 43.3412 52.4224H44.3855C44.4043 52.7723 44.5435 53.0508 44.8032 53.2578C45.0666 53.461 45.4128 53.5626 45.8418 53.5626C46.2369 53.5626 46.553 53.4835 46.79 53.3255C47.0309 53.1637 47.1513 52.9492 47.1513 52.682Z" fill="black"/>
<path d="M50.538 48.1946L50.5662 48.872C51.014 48.3451 51.618 48.0817 52.3781 48.0817C53.2323 48.0817 53.8137 48.4091 54.1223 49.0639C54.3255 48.7704 54.5889 48.5333 54.9125 48.3527C55.2399 48.172 55.6256 48.0817 56.0697 48.0817C57.4093 48.0817 58.0904 48.7911 58.113 50.2097V54.302H57.0687V50.2718C57.0687 49.8353 56.969 49.5098 56.7696 49.2953C56.5701 49.077 56.2352 48.9679 55.7648 48.9679C55.3773 48.9679 55.0555 49.0846 54.7996 49.3179C54.5437 49.5474 54.3951 49.8579 54.3537 50.2492V54.302H53.3038V50.3C53.3038 49.412 52.8692 48.9679 51.9999 48.9679C51.3151 48.9679 50.8466 49.2596 50.5945 49.8428V54.302H49.5502V48.1946H50.538Z" fill="black"/>
<path d="M63.464 54.302C63.4038 54.1816 63.3549 53.9671 63.3172 53.6585C62.8318 54.1628 62.2523 54.4149 61.5787 54.4149C60.9766 54.4149 60.4818 54.2456 60.0942 53.9069C59.7104 53.5644 59.5185 53.1317 59.5185 52.6086C59.5185 51.9727 59.7593 51.4797 60.241 51.1298C60.7264 50.7761 61.4075 50.5992 62.2843 50.5992H63.3003V50.1194C63.3003 49.7544 63.1912 49.4646 62.9729 49.2501C62.7547 49.0319 62.4329 48.9228 62.0077 48.9228C61.6352 48.9228 61.3228 49.0168 61.0707 49.205C60.8186 49.3931 60.6925 49.6208 60.6925 49.888H59.6426C59.6426 49.5832 59.7499 49.2897 59.9644 49.0074C60.1826 48.7214 60.4761 48.4957 60.8449 48.3301C61.2175 48.1645 61.6258 48.0817 62.0698 48.0817C62.7735 48.0817 63.3248 48.2586 63.7236 48.6123C64.1225 48.9623 64.3295 49.4458 64.3445 50.063V52.8739C64.3445 53.4346 64.416 53.8805 64.559 54.2117V54.302H63.464ZM61.7311 53.5061C62.0585 53.5061 62.3689 53.4215 62.6625 53.2521C62.956 53.0828 63.1686 52.8626 63.3003 52.5917V51.3386H62.4818C61.2024 51.3386 60.5627 51.713 60.5627 52.4619C60.5627 52.7893 60.6718 53.0452 60.8901 53.2295C61.1083 53.4139 61.3887 53.5061 61.7311 53.5061Z" fill="black"/>
<path d="M68.9335 49.1316C68.7755 49.1053 68.6043 49.0921 68.4199 49.0921C67.735 49.0921 67.2703 49.3837 67.0257 49.967V54.302H65.9814V48.1946H66.9975L67.0144 48.9002C67.3568 48.3545 67.8423 48.0817 68.4707 48.0817C68.6739 48.0817 68.8282 48.1081 68.9335 48.1608V49.1316Z" fill="black"/>
<path d="M71.5978 46.7158V48.1946H72.738V49.0018H71.5978V52.7893C71.5978 53.0339 71.6486 53.2183 71.7502 53.3424C71.8518 53.4628 72.0249 53.5231 72.2695 53.5231C72.3899 53.5231 72.5554 53.5005 72.7662 53.4553V54.302C72.4915 54.3773 72.2243 54.4149 71.9647 54.4149C71.498 54.4149 71.1462 54.2738 70.9091 53.9916C70.6721 53.7093 70.5535 53.3086 70.5535 52.7893V49.0018H69.4415V48.1946H70.5535V46.7158H71.5978Z" fill="black"/>
<path d="M78.247 46.7158V48.1946H79.3872V49.0018H78.247V52.7893C78.247 53.0339 78.2978 53.2183 78.3994 53.3424C78.501 53.4628 78.6741 53.5231 78.9187 53.5231C79.0391 53.5231 79.2047 53.5005 79.4154 53.4553V54.302C79.1407 54.3773 78.8736 54.4149 78.6139 54.4149C78.1473 54.4149 77.7955 54.2738 77.5584 53.9916C77.3213 53.7093 77.2028 53.3086 77.2028 52.7893V49.0018H76.0908V48.1946H77.2028V46.7158H78.247Z" fill="black"/>
<path d="M84.3826 54.302C84.3224 54.1816 84.2735 53.9671 84.2359 53.6585C83.7504 54.1628 83.1709 54.4149 82.4973 54.4149C81.8953 54.4149 81.4004 54.2456 81.0128 53.9069C80.629 53.5644 80.4371 53.1317 80.4371 52.6086C80.4371 51.9727 80.6779 51.4797 81.1596 51.1298C81.645 50.7761 82.3261 50.5992 83.2029 50.5992H84.2189V50.1194C84.2189 49.7544 84.1098 49.4646 83.8915 49.2501C83.6733 49.0319 83.3516 48.9228 82.9263 48.9228C82.5538 48.9228 82.2415 49.0168 81.9893 49.205C81.7372 49.3931 81.6112 49.6208 81.6112 49.888H80.5613C80.5613 49.5832 80.6685 49.2897 80.883 49.0074C81.1013 48.7214 81.3948 48.4957 81.7636 48.3301C82.1361 48.1645 82.5444 48.0817 82.9884 48.0817C83.6921 48.0817 84.2434 48.2586 84.6423 48.6123C85.0411 48.9623 85.2481 49.4458 85.2632 50.063V52.8739C85.2632 53.4346 85.3347 53.8805 85.4777 54.2117V54.302H84.3826ZM82.6497 53.5061C82.9771 53.5061 83.2876 53.4215 83.5811 53.2521C83.8746 53.0828 84.0872 52.8626 84.2189 52.5917V51.3386H83.4005C82.121 51.3386 81.4813 51.713 81.4813 52.4619C81.4813 52.7893 81.5905 53.0452 81.8087 53.2295C82.027 53.4139 82.3073 53.5061 82.6497 53.5061Z" fill="black"/>
<path d="M86.6517 51.1975C86.6517 50.2455 86.8719 49.4891 87.3121 48.9284C87.7524 48.364 88.3357 48.0817 89.0619 48.0817C89.807 48.0817 90.3884 48.3451 90.8061 48.872L90.8569 48.1946H91.8108V54.1552C91.8108 54.9455 91.5756 55.5683 91.1053 56.0236C90.6386 56.4789 90.0102 56.7066 89.22 56.7066C88.7797 56.7066 88.3488 56.6125 87.9274 56.4243C87.5059 56.2362 87.1842 55.9784 86.9622 55.651L87.504 55.0245C87.9518 55.5777 88.4994 55.8542 89.1466 55.8542C89.6546 55.8542 90.0497 55.7113 90.332 55.4253C90.6179 55.1393 90.7609 54.7366 90.7609 54.2173V53.6924C90.3432 54.1741 89.7731 54.4149 89.0506 54.4149C88.3357 54.4149 87.7562 54.127 87.3121 53.5513C86.8719 52.9755 86.6517 52.1909 86.6517 51.1975ZM87.7016 51.316C87.7016 52.0047 87.8427 52.5466 88.1249 52.9417C88.4072 53.333 88.8023 53.5287 89.3103 53.5287C89.9688 53.5287 90.4524 53.2295 90.7609 52.6312V49.8428C90.4411 49.2596 89.9613 48.9679 89.3216 48.9679C88.8136 48.9679 88.4166 49.1655 88.1306 49.5606C87.8446 49.9557 87.7016 50.5409 87.7016 51.316Z" fill="black"/>
<path d="M93.1429 51.1975C93.1429 50.2455 93.3631 49.4891 93.8033 48.9284C94.2436 48.364 94.8269 48.0817 95.5532 48.0817C96.2982 48.0817 96.8796 48.3451 97.2973 48.872L97.3481 48.1946H98.302V54.1552C98.302 54.9455 98.0668 55.5683 97.5965 56.0236C97.1299 56.4789 96.5014 56.7066 95.7112 56.7066C95.2709 56.7066 94.8401 56.6125 94.4186 56.4243C93.9971 56.2362 93.6754 55.9784 93.4534 55.651L93.9953 55.0245C94.4431 55.5777 94.9906 55.8542 95.6378 55.8542C96.1458 55.8542 96.5409 55.7113 96.8232 55.4253C97.1092 55.1393 97.2522 54.7366 97.2522 54.2173V53.6924C96.8345 54.1741 96.2644 54.4149 95.5419 54.4149C94.8269 54.4149 94.2474 54.127 93.8033 53.5513C93.3631 52.9755 93.1429 52.1909 93.1429 51.1975ZM94.1928 51.316C94.1928 52.0047 94.3339 52.5466 94.6162 52.9417C94.8984 53.333 95.2935 53.5287 95.8015 53.5287C96.46 53.5287 96.9436 53.2295 97.2522 52.6312V49.8428C96.9323 49.2596 96.4525 48.9679 95.8128 48.9679C95.3048 48.9679 94.9078 49.1655 94.6218 49.5606C94.3358 49.9557 94.1928 50.5409 94.1928 51.316Z" fill="black"/>
<path d="M101.017 54.302H99.9728V48.1946H101.017V54.302ZM99.8881 46.5746C99.8881 46.4053 99.9389 46.2623 100.041 46.1457C100.146 46.029 100.3 45.9707 100.503 45.9707C100.707 45.9707 100.861 46.029 100.966 46.1457C101.072 46.2623 101.124 46.4053 101.124 46.5746C101.124 46.744 101.072 46.8851 100.966 46.998C100.861 47.1109 100.707 47.1673 100.503 47.1673C100.3 47.1673 100.146 47.1109 100.041 46.998C99.9389 46.8851 99.8881 46.744 99.8881 46.5746Z" fill="black"/>
<path d="M103.681 48.1946L103.715 48.9623C104.182 48.3752 104.791 48.0817 105.544 48.0817C106.835 48.0817 107.486 48.8099 107.497 50.2662V54.302H106.453V50.2605C106.449 49.8202 106.347 49.4947 106.148 49.284C105.952 49.0733 105.646 48.9679 105.228 48.9679C104.889 48.9679 104.592 49.0582 104.336 49.2389C104.08 49.4195 103.881 49.6566 103.738 49.9501V54.302H102.693V48.1946H103.681Z" fill="black"/>
<path d="M108.823 51.1975C108.823 50.2455 109.044 49.4891 109.484 48.9284C109.924 48.364 110.507 48.0817 111.234 48.0817C111.979 48.0817 112.56 48.3451 112.978 48.872L113.029 48.1946H113.983V54.1552C113.983 54.9455 113.747 55.5683 113.277 56.0236C112.81 56.4789 112.182 56.7066 111.392 56.7066C110.951 56.7066 110.521 56.6125 110.099 56.4243C109.678 56.2362 109.356 55.9784 109.134 55.651L109.676 55.0245C110.124 55.5777 110.671 55.8542 111.318 55.8542C111.826 55.8542 112.221 55.7113 112.504 55.4253C112.79 55.1393 112.933 54.7366 112.933 54.2173V53.6924C112.515 54.1741 111.945 54.4149 111.222 54.4149C110.507 54.4149 109.928 54.127 109.484 53.5513C109.044 52.9755 108.823 52.1909 108.823 51.1975ZM109.873 51.316C109.873 52.0047 110.014 52.5466 110.297 52.9417C110.579 53.333 110.974 53.5287 111.482 53.5287C112.141 53.5287 112.624 53.2295 112.933 52.6312V49.8428C112.613 49.2596 112.133 48.9679 111.493 48.9679C110.985 48.9679 110.588 49.1655 110.302 49.5606C110.016 49.9557 109.873 50.5409 109.873 51.316Z" fill="black"/>
</svg>
